<?xml version="1.0" encoding="UTF-8" standalone="no"?>
<!DOCTYPE svg PUBLIC "-//W3C//DTD SVG 1.1//EN" "http://www.w3.org/Graphics/SVG/1.1/DTD/svg11.dtd">
<svg width="100%" height="100%" viewBox="0 0 2350 1456" version="1.1" xmlns="http://www.w3.org/2000/svg" xmlns:xlink="http://www.w3.org/1999/xlink" xml:space="preserve" xmlns:serif="http://www.serif.com/" style="fill-rule:evenodd;clip-rule:evenodd;stroke-linejoin:round;stroke-miterlimit:2;">
    <g transform="matrix(1,0,0,1,-4158.65,-2272.182055)">
        <g transform="matrix(5.555556,0,0,5.555556,5194.266667,2282.076111)">
            <path d="M0,189.14L-54.383,189.145L-39.998,182.777C-36.336,181.532 -34.909,178.574 -34.522,174.887L-34.513,98.078L-151.457,98.078L-151.448,174.666C-151.051,177.653 -150.275,180.187 -147.844,181.96L-131.466,189.139L-186.269,189.148L-170.299,182.052C-167.7,180.897 -166.313,177.582 -166.313,174.631L-166.317,14.237C-166.317,10.578 -168.259,7.903 -171.412,6.529L-186.411,-0.006L-131.332,-0.008L-146.321,6.545C-149.53,7.792 -151.403,10.691 -151.405,14.202L-151.444,88.86L-34.51,88.858L-34.522,14.407C-34.875,11.342 -35.655,8.818 -38.233,7.174L-54.416,0.011L0.23,0.004L-14.273,6.351C-17.762,7.878 -19.638,10.546 -19.638,14.451L-19.634,174.854C-19.634,178.612 -17.603,181.394 -14.324,182.803C-9.574,184.804 -5.263,186.261 0,189.14" style="fill:rgb(90,17,26);fill-rule:nonzero;"/>
        </g>
        <g transform="matrix(5.555556,0,0,5.555556,5627.81,3143.936667)">
            <path d="M0,-121.134C-4.149,-130.857 -12.319,-137.842 -23.11,-141.563C-32.343,-144.732 -41.959,-146.009 -51.998,-146.034L-97.624,-146.151L-97.628,-47.009L-44.492,-47.083C-34.135,-47.098 -24.48,-47.949 -14.494,-49.725C-8.071,-56.229 -3.304,-63.265 -0.304,-71.514C4.949,-85.958 6.078,-106.888 0,-121.134M-97.59,19.371C-97.587,22.447 -96.223,25.795 -93.609,26.953L-77.676,34.011L-132.435,34.041L-116.468,26.948C-113.868,25.793 -112.482,22.477 -112.482,19.527L-112.487,-140.87C-112.487,-144.288 -114.251,-147.086 -117.212,-148.391L-132.535,-155.143L-45.726,-155.171C-34.037,-155.175 -23.247,-153.241 -12.711,-149.193C1.436,-143.759 11.841,-133.363 16.211,-119.914C24.982,-92.924 14.931,-64.249 -12.117,-49.247C-25.094,-42.372 -39.476,-38.032 -54.74,-37.991L-97.641,-37.875L-97.59,19.371Z" style="fill:rgb(90,17,26);fill-rule:nonzero;"/>
        </g>
        <g transform="matrix(5.555556,0,0,5.555556,6170.567222,2343.611111)">
            <path d="M0,168.338C24.634,168.14 39.965,161.202 60.078,149.031C50.956,159.861 39.204,168.224 25.767,173.629C3.334,182.652 -29.203,181.926 -51.133,170.955C-78.774,157.127 -89.86,131.537 -92.759,104.208C-94.583,87.012 -93.459,70.171 -88.54,53.49C-83.289,35.686 -73.199,20.19 -58.726,7.4C-52.454,1.856 -45.542,-2.206 -37.423,-5.324C-19.586,-12.174 -0.512,-14.314 18.714,-11.901C30.709,-10.395 42.011,-7.98 53.039,-3.352L56.011,28.287C52.455,22.864 49.667,17.914 45.823,13.028C38.563,3.805 28.068,-1.445 15.548,-2.544C-10.605,-4.839 -29.409,-3.179 -54.189,5.701C-66.387,23.688 -74.926,43.407 -77.437,64.678C-79.171,79.356 -79.122,93.563 -77.073,108.132C-75.582,118.743 -72.485,128.637 -67.089,137.98C-53.545,161.434 -28.287,168.788 0,168.338" style="fill:rgb(90,17,26);fill-rule:nonzero;"/>
        </g>
        <g transform="matrix(5.555556,0,0,5.555556,6305.777222,2624.804444)">
            <path d="M0,67.758C5.88,53.738 7.327,40.842 6.541,25.947C5.362,13.643 1.284,1.745 -12.141,-3.49C-23.871,-7.877 -40.564,-5.353 -52.408,-2.035C-58.787,12.647 -60.24,27.748 -58.639,43.273C-56.686,55.512 -51.557,65.947 -37.767,70.008C-26.525,73.217 -11.242,70.844 0,67.758M13.605,49.763C6.54,72.246 -18.271,81.958 -41.665,76.091C-57.242,72.185 -65.485,59.915 -67.848,46.036C-70.141,32.565 -68.814,15.784 -60.062,4.224C-49.78,-9.357 -31.406,-14.2 -13.955,-11.116C1.562,-8.374 11.372,2.272 14.624,15.989C17.278,27.185 17.055,38.787 13.605,49.763" style="fill:rgb(90,17,26);fill-rule:nonzero;"/>
        </g>
        <g transform="matrix(-5.210754,1.926718,1.926718,5.210754,6486.902996,3047.085452)">
            <path d="M2.506,-13.659C-1.998,-13.373 -5.192,-9.882 -5.167,-5.995C-5.141,-2.195 -1.709,0.772 2.506,0.527C6.608,0.287 9.999,-2.888 10.123,-6.665C10.252,-10.582 7.085,-13.951 2.506,-13.659" style="fill:rgb(90,17,26);fill-rule:nonzero;"/>
        </g>
        <g transform="matrix(5.555556,0,0,5.555556,4165.09,3537.103889)">
            <path d="M0,32.923L-0.535,24.642L-0.341,24.642C3.697,29.51 5.886,30.665 11.48,30.665C13.377,30.665 14.739,30.514 16.88,30.112C17.317,28.858 17.609,27.302 17.609,25.596C17.609,22.384 16.053,20.878 12.745,19.824L6.615,17.917C1.41,16.311 -0.633,13.35 -0.633,9.486C-0.633,6.324 1.021,3.614 3.843,1.707C6.907,-0.401 9.924,-1.405 13.571,-1.405C16.539,-1.405 19.458,-0.852 21.16,-0.2L21.646,8.081L21.501,8.081C17.317,3.163 15.566,2.259 10.264,2.259C8.513,2.259 7.054,2.41 5.01,2.861C4.572,4.016 4.329,5.571 4.329,7.378C4.329,10.389 5.643,11.744 8.756,12.698L14.934,14.605C20.382,16.311 22.522,19.322 22.522,23.387C22.522,26.75 20.723,29.51 17.755,31.518C14.837,33.425 11.967,34.328 8.464,34.328C5.545,34.328 1.945,33.776 0,32.923" style="fill:rgb(90,17,26);fill-rule:nonzero;"/>
        </g>
        <g transform="matrix(5.555556,0,0,5.555556,4423.428889,3532.089444)">
            <path d="M0,34.729L1.897,33.073C2.919,32.119 3.016,31.216 3.016,29.66L3.016,5.069C3.016,3.513 2.919,2.61 1.897,1.656L0,-0L0,-0.201L11.675,-0.201L11.675,-0L9.875,1.656C8.805,2.61 8.659,3.513 8.659,5.069L8.659,29.66C8.659,31.216 8.805,32.119 9.875,33.073L11.675,34.729L11.675,34.93L0,34.93L0,34.729Z" style="fill:rgb(90,17,26);fill-rule:nonzero;"/>
        </g>
        <g transform="matrix(5.555556,0,0,5.555556,4652.861111,3677.350556)">
            <path d="M0,-17.565L0,3.363C0,4.868 0.194,5.671 1.021,6.575L2.87,8.582L2.87,8.783L-6.519,8.783L-6.519,8.582L-4.67,6.575C-3.795,5.621 -3.648,4.868 -3.648,3.363L-3.648,-21.178C-3.648,-22.584 -3.648,-23.286 -4.427,-24.089L-6.47,-26.147L-6.47,-26.348L0.292,-26.348L18.533,-0.803L18.533,-20.928C18.533,-22.433 18.29,-23.186 17.512,-24.089L15.663,-26.147L15.663,-26.348L25.052,-26.348L25.052,-26.147L23.203,-24.14C22.328,-23.186 22.182,-22.433 22.182,-20.928L22.182,8.783L18.729,8.783L0,-17.565Z" style="fill:rgb(90,17,26);fill-rule:nonzero;"/>
        </g>
        <g transform="matrix(5.555556,0,0,5.555556,4922.012778,3621.313889)">
            <path d="M0,2.609C0,-4.718 2.48,-9.888 7.005,-13.3C9.972,-15.458 13.62,-16.562 18.193,-16.562C20.771,-16.562 23.544,-16.06 25.538,-15.257L26.122,-6.776L25.977,-6.776C22.182,-12.146 19.36,-12.899 15.226,-12.899C12.161,-12.899 10.361,-12.698 8.172,-12.196C6.762,-8.432 5.886,-4.517 5.886,1.053C5.886,10.588 9.389,14.302 16.831,14.302C20.139,14.302 23.301,13.65 26.803,11.392L26.949,11.592C23.398,17.063 19.458,19.171 14.302,19.171C6.178,19.171 0,14.001 0,2.609" style="fill:rgb(90,17,26);fill-rule:nonzero;"/>
        </g>
        <g transform="matrix(5.555556,0,0,5.555556,5198.461111,3532.089444)">
            <path d="M0,34.729L2.092,32.722C2.968,31.818 3.016,31.065 3.016,29.66L3.016,5.069C3.016,3.664 2.968,2.911 2.092,2.007L0,-0L0,-0.201L24.42,-0.201L25.441,8.431L25.247,8.431L22.669,5.521C20.771,3.463 19.896,3.162 17.269,3.162L8.659,3.162L8.659,16.461L21.209,14.354L21.403,14.354L21.403,19.673L21.209,19.673L8.659,18.017L8.659,31.567L17.464,31.567C20.091,31.567 20.966,31.266 22.863,29.208L25.441,26.298L25.636,26.298L24.614,34.93L0,34.93L0,34.729Z" style="fill:rgb(90,17,26);fill-rule:nonzero;"/>
        </g>
        <g transform="matrix(5.555556,0,0,5.555556,5643.258333,3530.417222)">
            <path d="M0,35.03L2.433,33.173C3.356,32.37 3.552,31.517 3.552,29.811L3.552,6.273L-1.751,4.567L-1.751,4.416L9.048,-0.201L9.243,-0.201L9.243,29.811C9.243,31.567 9.389,32.42 10.313,33.223L12.6,35.03L12.6,35.231L0,35.231L0,35.03Z" style="fill:rgb(90,17,26);fill-rule:nonzero;"/>
        </g>
        <g transform="matrix(5.555556,0,0,5.555556,5876.201111,3704.117778)">
            <path d="M0,-27.201C-0.437,-25.495 -0.729,-22.735 -0.729,-20.627C-0.729,-16.812 0.827,-13.551 6.859,-13.551C8.27,-13.551 10.604,-13.851 12.551,-14.353C12.6,-14.956 12.6,-15.608 12.6,-16.21C12.6,-23.638 10.556,-27.804 5.254,-27.804C3.26,-27.804 2.043,-27.753 0,-27.201M18.437,-15.859C18.437,-6.474 14.253,4.266 -1.07,4.266L-3.746,4.216L-4.184,-3.212L-3.989,-3.212C-1.994,-1.204 -0.243,-0.502 2.384,-0.502C9.389,-0.502 12.112,-4.768 12.551,-13.5L6.421,-9.435C-0.973,-9.184 -6.178,-12.095 -6.178,-19.121C-6.178,-22.383 -4.184,-25.996 -1.07,-28.506C1.119,-30.313 3.648,-31.467 6.811,-31.467C13.523,-31.467 18.437,-26.448 18.437,-15.859" style="fill:rgb(90,17,26);fill-rule:nonzero;"/>
        </g>
        <g transform="matrix(5.555556,0,0,5.555556,6131.035,3532.089444)">
            <path d="M0,34.729L14.642,4.768L2.967,4.768C-0.39,4.768 -0.974,5.169 -2.238,6.926L-3.989,9.335L-4.135,9.335L-3.308,-0.201L20.479,-0.201L20.479,-0L6.372,34.93L0,34.93L0,34.729Z" style="fill:rgb(90,17,26);fill-rule:nonzero;"/>
        </g>
        <g transform="matrix(5.555556,0,0,5.555556,6394.240556,3532.089444)">
            <path d="M0,34.729L14.642,4.768L2.967,4.768C-0.39,4.768 -0.974,5.169 -2.238,6.926L-3.989,9.335L-4.135,9.335L-3.308,-0.201L20.479,-0.201L20.479,-0L6.372,34.93L0,34.93L0,34.729Z" style="fill:rgb(90,17,26);fill-rule:nonzero;"/>
        </g>
    </g>
</svg>
