<svg xmlns="http://www.w3.org/2000/svg" xml:space="preserve" style="fill-rule:evenodd;clip-rule:evenodd;stroke-linejoin:round;stroke-miterlimit:2" viewBox="0 0 2691 2415"><path d="M0-321.906c-3.011 0-5.642 1.816-6.702 4.626-4.802 12.694-9.761 24.483-14.739 35.04a7.16 7.16 0 0 0 .428 6.919 7.13 7.13 0 0 0 6.052 3.324h96.425a7.22 7.22 0 0 0 6.46-4.051l10.427-21.5 17.204-26.591a7.16 7.16 0 0 0-1.536-9.497l-1.729-1.387a7.174 7.174 0 0 0-7.126-1.083l-27.568 10.872a47.8 47.8 0 0 1-17.592 3.34zm-266.929 160.684c-10.758 0-19.252 3.818-24.566 11.038-.942 1.281-3.792 5.166.84 10.743 7.232 8.706 27.481 15.273 47.103 15.273 12.102 0 23.565-2.449 33.148-7.077l2.106-1.017.275-2.373c.263-2.54-1.417-3.838-3.544-5.478-.507-.391-1.022-.772-1.302-1.042a7 7 0 0 0-2.101-1.56l-1.715-.835c-2.522-1.222-2.977-1.443-6.533-3.459-16.396-9.298-31.511-14.213-43.711-14.213m158.171 25.037c-2.689 0-5.277.67-7.693 1.99a132 132 0 0 0-17.409 11.367 7.2 7.2 0 0 0-2.731 6.692 7.22 7.22 0 0 0 4.475 5.699c5.233 2.08 9.89 3.091 14.236 3.091 5.675 0 10.868-1.762 15.433-5.24q.37-.282.682-.577c2.118-1.978 8.933-8.897 7.045-14.311-1.705-4.885-7.871-8.711-14.038-8.711m78.56 3.708c-2.986.163-6.005.368-8.986.575l-1.22.084c-5.66.389-11.513.792-17.035.808-2.691.011-5.111 1.491-6.317 3.863-2.82 5.55-5.924 12.158-9.768 20.796a7.18 7.18 0 0 0 .538 6.848 7.12 7.12 0 0 0 7.111 3.173 76 76 0 0 1 11.94-.92h15.639a7.17 7.17 0 0 0 6.613-4.37c3.266-7.683 6.076-14.581 8.592-21.091a7.17 7.17 0 0 0-.777-6.643 7.2 7.2 0 0 0-5.937-3.134h-.113zm-202.709 34.861c-7.82 0-13.896 2.944-17.108 8.289-2.327 3.869-2.913 8.771-1.652 13.805.729 2.917 3.25 5.822 6.744 7.767 1.859 1.037 5.872 2.777 11.818 2.777 7.685 0 15.963-2.845 24.605-8.454a136 136 0 0 0 5.342-3.65 7.13 7.13 0 0 0 2.966-6.475 7.12 7.12 0 0 0-4.046-5.852c-9.433-4.535-16.944-6.979-24.35-7.924a34 34 0 0 0-4.319-.283m179.216 5.793c-8.807 0-16.767 1.448-25.809 4.696a7.2 7.2 0 0 0-4.144 3.873c-2.998 6.813-5.311 11.92-7.5 16.557a7.13 7.13 0 0 0 .43 6.89 7.15 7.15 0 0 0 6.067 3.339h28.485a7.18 7.18 0 0 0 6.578-4.311c2.16-4.948 4.314-9.816 6.455-14.649l2.795-6.319a7.15 7.15 0 0 0-.552-6.815 7.16 7.16 0 0 0-6.016-3.261zm-50.412 143.288c-2.142-.417-8.746-2.593-14.21-13.74l4.739-3.746c3.183 4.567 7.782 8.309 12.796 10.375.858.352 1.759.53 2.682.53a7.175 7.175 0 0 0 6.629-4.432l20.241-48.401a7.17 7.17 0 0 0-.647-6.747 7.17 7.17 0 0 0-5.977-3.201h-16.326a7.19 7.19 0 0 0-5.23 2.27c-18.067 19.39-51.216 45.844-71.777 54.327-12.46 5.14-21.811 7.535-29.43 7.535-8.914 0-15.056-3.316-22.761-8.002-7.734-4.702-22.067-13.418-49.51-16.29l-1.551-5.294c19.061 1.103 37.194 6.802 53.88 16.947 6.656 4.049 11.913 7.247 20.207 7.247 6.731 0 15.087-2.209 27.094-7.161 16.642-6.865 40.319-25.332 55.539-39.057a7.15 7.15 0 0 0 1.903-7.923 7.12 7.12 0 0 0-6.697-4.599h-160.482l-1.007-5.427h214.422a7.16 7.16 0 0 0 6.622-4.409l5.587-13.36a7.16 7.16 0 0 0-.648-6.749 7.16 7.16 0 0 0-5.975-3.199h-41.273l2.186-4.012c1.818-3.333 3.716-7.063 5.802-11.401a7.14 7.14 0 0 0-.378-6.933c-1.329-2.117-3.601-3.38-6.073-3.38-.824 0-1.644.144-2.435.424-11.146 3.953-21.749 5.795-33.37 5.795-4.613 0-9.479-.297-14.463-.884-10.778-1.267-20.718-4.778-29.854-8.383a7.134 7.134 0 0 0-6.592.702 143 143 0 0 1-16.68 9.603c-8.864 4.34-17.796 6.635-25.833 6.635-4.783 0-9.133-.807-12.93-2.402-5.067-2.126-8.595-5.516-9.933-9.545-1.979-5.959-.981-12.055 2.739-16.72 2.428-3.046 8.312-8.156 20.435-8.156 1.481 0 3.034.078 4.615.229 12.445 1.196 23.755 5.491 36.194 10.561a7.204 7.204 0 0 0 7.074-.943c5.61-4.297 10.699-8.68 16.087-13.321l.444-.38a780 780 0 0 1 5.74-4.911 7.11 7.11 0 0 0 2.447-6.62 7.1 7.1 0 0 0-4.406-5.503c-7.042-2.817-17.639-7.32-32.395-13.764a7.015 7.015 0 0 0-5.827.092c-3.565 1.68-7.126 3.373-10.642 5.068-11.588 5.599-24.821 8.557-38.272 8.557-18.816 0-35.386-5.877-43.245-15.341-4.671-5.621-5.05-11.973-1.038-17.424 6.539-8.891 16.168-13.396 28.619-13.396 13.178 0 29.329 5.208 46.704 15.062 6.728 3.816 9.916 5.255 16.268 8.123l1.42.64a7.2 7.2 0 0 0 2.986.643 7.3 7.3 0 0 0 3.065-.677l5.819-2.713c50.726-23.643 103.171-48.085 141.457-98.85 2.492-3.302 5.031-6.995 7.548-10.976a7.189 7.189 0 0 0-6.069-11.028h-113.742a7.22 7.22 0 0 0-6.892 5.167 44159 44159 0 0 1-14.547 49.75 7.06 7.06 0 0 0 1.133 6.274 7.09 7.09 0 0 0 5.726 2.862h19.211v5.426h-30.301l-.018.06-3.031-.06h-27.071v-5.426h20.834c3.164 0 5.992-2.119 6.876-5.155 3.637-12.483 8.993-30.884 14.461-49.717a7.12 7.12 0 0 0-1.155-6.313 7.11 7.11 0 0 0-5.739-2.868h-11.891l1.223-5.427h16.405c3.175 0 6.011-2.133 6.897-5.187 8.566-29.576 13.647-47.311 15.105-52.718 3.406-12.63 2.422-24.112-2.634-30.712-3.061-3.994-7.646-6.378-13.641-7.095v-5.453c9.695.999 15.105 5.537 17.949 9.25 8.759 11.433 5.411 28.579 3.564 35.421-1.414 5.25-5.987 21.164-13.591 47.303a7.13 7.13 0 0 0 1.154 6.321 7.12 7.12 0 0 0 5.743 2.87H-36.91a7.16 7.16 0 0 0 6.411-3.924c5.415-10.655 10.845-22.827 16.139-36.178a7.15 7.15 0 0 0-.735-6.661 7.18 7.18 0 0 0-5.948-3.15l-65.292-.014a27.53 27.53 0 0 1-20.673-9.349l-3.317-3.769 4.072-3.582 3.319 3.768a22.12 22.12 0 0 0 16.6 7.505l72.722.014a7.2 7.2 0 0 0 6.77-4.78c7.017-19.68 11.664-35.639 13.246-41.254h5.251c-1.509 5.507-5.389 19.154-11.331 36.544a7.18 7.18 0 0 0 .952 6.487 7.2 7.2 0 0 0 5.838 3.009l52.89.011c5.368 0 10.616-.997 15.601-2.965l34.374-13.553 16.309 13.093-23.218 35.907a8 8 0 0 0-.438.782l-5.674 11.761a7.14 7.14 0 0 0 .386 6.937 7.14 7.14 0 0 0 6.078 3.361h69.938l.908 5.427H-25.084a7.18 7.18 0 0 0-6.257 3.679 223 223 0 0 1-7.028 11.748 7.14 7.14 0 0 0-.266 7.291 7.16 7.16 0 0 0 6.289 3.728c1.202-.016 2.327-.027 3.486-.027 6.815 0 13.409.324 19.596.963 17.827 1.838 38.188 9.764 57.879 17.428 15.342 5.976 29.834 11.619 42.533 14.266 3.121.649 6.215.979 9.197.979 14.027 0 26.231-7.081 36.287-21.054l6.16 2.976c-11.366 15.435-25.778 23.584-41.753 23.584-3.869 0-7.87-.426-11.892-1.265-13.451-2.8-28.294-8.579-44.008-14.696-19.114-7.443-38.879-15.138-55.422-16.845-4.948-.51-10.662-.77-16.986-.77-8.269 0-16.013.443-21.054.813a7.1 7.1 0 0 0-4.881 2.497c-34.895 41.267-79.187 64.098-125.314 85.725a7.18 7.18 0 0 0-4.127 6.655c.066 2.878 1.759 5.349 4.419 6.452l5.684 2.363c9.136 3.801 17.765 7.39 22.258 9.048l2.579.95 1.789-1.229c8.826-6.061 17.869-10.816 27.647-14.538 2.518-.958 5.232-1.443 8.065-1.443 7.633 0 14.512 3.498 17.117 8.706 1.467 2.936 3.553 10.604-8.752 18.383l-.241.139c-4.689 2.596-9.802 3.885-15.526 3.885-8.909 0-17.52-3.109-25.576-6.294a7.2 7.2 0 0 0-2.632-.502c-1.573 0-3.123.53-4.364 1.49-5.113 3.955-9.808 7.996-14.778 12.274l-.41.355a748 748 0 0 1-6.998 5.975 7.18 7.18 0 0 0-2.421 6.892 7.18 7.18 0 0 0 4.856 5.446c5.976 1.897 11.395 3.113 16.567 3.721 4.874.573 9.591.864 14.021.864 19.483-.002 32.449-5.597 44.987-11.007l2.995-1.288 7.039-6.999.32-.734c5.645-12.96 12.043-27.65 18.36-39.241l3.2-5.866 2.077 2.27a7.2 7.2 0 0 0 5.293 2.34c5.218-.125 10.453-.486 15.517-.834 6.279-.434 12.618-.872 18.594-.894 2.185 0 4.21 1.097 5.443 2.933 1.174 1.751 1.45 3.957.735 5.904-7.136 19.453-14.842 36.853-23.002 55.275-3.111 7.023-6.253 14.118-9.4 21.418l-.66 1.531-7.393 17.91a7.16 7.16 0 0 0 .669 6.729 7.16 7.16 0 0 0 5.967 3.187h213.974l-1.934 5.427H-11.396a7.14 7.14 0 0 0-6.816 4.941 7.19 7.19 0 0 0 2.623 8.06C-10.457-1.167-5.497 2.788-.7 6.61c13.956 11.13 27.139 21.639 43.419 27.242 8.995 3.097 18.914 4.668 29.48 4.668 8.368 0 17.286-.989 26.506-2.936 12.896-2.725 32.904-9.496 59.493-20.133l-1.672 6.758c-14.991 6.079-36.927 14.505-56.699 18.685-9.592 2.025-18.889 3.052-27.632 3.052-11.16 0-21.672-1.668-31.242-4.962C23.798 33.081 9.635 21.789-4.062 10.87l-2.283-1.822C-20.959-2.63-34.763-13.66-52.89-17.717a7.5 7.5 0 0 0-1.624-.18h-2.254a7.16 7.16 0 0 0-6.636 4.438l-26.8 64.924z" style="fill:#7a1217;fill-rule:nonzero" transform="matrix(5.55556 0 0 5.55556 1667.971 2119.52)"/><path d="m-187.401-195.507-.078.06-3.047-.06h-28.639v-8.594h22.418a5.6 5.6 0 0 0 5.355-4.014c3.637-12.482 8.993-30.883 14.461-49.715a5.55 5.55 0 0 0-.901-4.921v-.001a5.54 5.54 0 0 0-4.472-2.234h-13.872l1.937-8.595h17.672a5.63 5.63 0 0 0 5.376-4.044c8.561-29.56 13.639-47.285 15.097-52.689 3.252-12.059 2.465-23.035-2.362-29.337-2.817-3.674-7.057-5.826-12.572-6.485l-1.396-.167v-8.615l1.746.18c10.297 1.061 16.024 5.919 19.044 9.863 9.103 11.881 5.756 29.686 3.836 36.796-1.415 5.254-5.99 21.178-13.599 47.333a5.56 5.56 0 0 0 .9 4.928 5.55 5.55 0 0 0 4.476 2.237H-36.91a5.58 5.58 0 0 0 4.999-3.058c5.395-10.615 10.804-22.742 16.078-36.043a5.57 5.57 0 0 0-.572-5.188 5.6 5.6 0 0 0-4.638-2.456l-65.292-.014a29.12 29.12 0 0 1-21.862-9.887l-4.364-4.958 6.45-5.674 4.366 4.957a20.53 20.53 0 0 0 15.411 6.967l72.722.014a5.61 5.61 0 0 0 5.278-3.728c7-19.631 11.635-35.55 13.213-41.152l.326-1.154h8.526l-.548 2.003c-1.513 5.521-5.403 19.203-11.36 36.637a5.596 5.596 0 0 0 5.292 7.4l52.889.011c5.168 0 10.22-.96 15.02-2.854l35.23-13.891 18.14 14.564-23.991 37.103a6 6 0 0 0-.344.614l-5.674 11.761a5.56 5.56 0 0 0 .3 5.406l.001.001a5.56 5.56 0 0 0 4.736 2.619h71.279l1.438 8.595H-25.084a5.6 5.6 0 0 0-4.874 2.868 224 224 0 0 1-7.079 11.832 5.56 5.56 0 0 0-.208 5.675l.001.001a5.57 5.57 0 0 0 4.889 2.902 260 260 0 0 1 3.495-.027c6.872 0 13.52.327 19.759.971 17.951 1.851 38.462 9.81 58.291 17.528 15.252 5.941 29.656 11.56 42.281 14.191 3.011.626 5.997.946 8.874.946 13.545 0 25.291-6.903 35.001-20.395l.777-1.08 9.075 4.384-1.131 1.536c-11.704 15.895-26.577 24.229-43.028 24.229-3.974 0-8.084-.437-12.215-1.298-13.527-2.816-28.457-8.619-44.26-14.771-18.974-7.389-38.587-15.051-55.01-16.745-4.9-.505-10.56-.762-16.823-.762-8.223 0-15.925.441-20.94.809h-.002a5.5 5.5 0 0 0-3.783 1.94c-35.051 41.45-79.519 64.413-125.852 86.136a5.59 5.59 0 0 0-3.215 5.185c.051 2.241 1.37 4.166 3.442 5.025l5.685 2.363c9.112 3.791 17.717 7.371 22.198 9.025l1.81.666 1.113-.765c8.933-6.134 18.085-10.946 27.981-14.712 2.694-1.025 5.597-1.547 8.628-1.547 8.293 0 15.703 3.923 18.534 9.582.843 1.687 1.864 4.734.906 8.476-.9 3.517-3.584 7.753-10.256 11.971l-.281.162-.012.007c-4.921 2.724-10.286 4.083-16.293 4.083-9.109 0-17.92-3.148-26.157-6.404a5.6 5.6 0 0 0-2.051-.392 5.58 5.58 0 0 0-3.395 1.159c-5.09 3.937-9.764 7.961-14.712 12.22l-.41.355-.001.001a736 736 0 0 1-7.013 5.988 5.59 5.59 0 0 0-1.886 5.371 5.59 5.59 0 0 0 3.783 4.245c5.869 1.863 11.191 3.06 16.271 3.657 4.81.565 9.464.853 13.836.853 19.214-.002 31.995-5.542 44.36-10.878l2.719-1.169 6.611-6.573.199-.457c5.663-13.002 12.084-27.738 18.421-39.366l4.263-7.813 3.574 3.906a5.6 5.6 0 0 0 4.106 1.825c5.188-.125 10.392-.484 15.426-.83 6.314-.437 12.688-.876 18.7-.898h.003c2.712 0 5.228 1.355 6.758 3.634l.001.001c1.457 2.174 1.794 4.914.906 7.332-7.148 19.486-14.867 36.917-23.041 55.371-3.109 7.018-6.249 14.108-9.393 21.403l-.656 1.52-7.388 17.899a5.58 5.58 0 0 0 .522 5.244 5.58 5.58 0 0 0 4.65 2.483h216.22l-3.063 8.595H-11.396a5.565 5.565 0 0 0-5.31 3.847 5.615 5.615 0 0 0 2.048 6.289C-9.507-2.435-4.528 1.535.287 5.371l.001.001C14.097 16.385 27.125 26.81 43.235 32.354c8.837 3.043 18.583 4.582 28.964 4.582 8.265 0 17.072-.979 26.179-2.902 12.84-2.713 32.758-9.463 59.232-20.054l2.867-1.147-2.607 10.54-.749.304c-15.061 6.107-37.102 14.567-56.967 18.767-9.705 2.049-19.113 3.086-27.959 3.086-11.344 0-22.029-1.7-31.757-5.048C23.109 34.519 8.786 23.138-5.05 12.108l-2.284-1.823c-14.42-11.523-28.014-22.452-45.901-26.456a6 6 0 0 0-1.279-.142h-2.254a5.58 5.58 0 0 0-5.172 3.459l-27.204 65.903h-15.112l-.15-.029c-2.294-.447-9.478-2.66-15.329-14.598l-.563-1.147 7.062-5.582.962 1.38c3.01 4.319 7.356 7.862 12.098 9.816a5.45 5.45 0 0 0 2.08.411 5.59 5.59 0 0 0 5.167-3.459L-72.687-8.56a5.58 5.58 0 0 0-.505-5.258 5.58 5.58 0 0 0-4.658-2.495h-16.326a5.6 5.6 0 0 0-4.073 1.767c-18.202 19.535-51.615 46.164-72.33 54.71-12.712 5.244-22.261 7.655-30.034 7.655-9.229 0-15.607-3.381-23.584-8.233-7.631-4.639-21.774-13.234-48.852-16.068l-1.056-.11-2.482-8.47 2.244.13c19.319 1.118 37.699 6.892 54.611 17.175 6.392 3.888 11.419 7.016 19.384 7.016 6.583 0 14.746-2.198 26.49-7.041 16.51-6.811 39.983-25.153 55.082-38.77a5.57 5.57 0 0 0 1.485-6.178 5.55 5.55 0 0 0-5.218-3.583h-161.799l-1.595-8.595h216.327a5.58 5.58 0 0 0 5.161-3.436l5.586-13.36a5.58 5.58 0 0 0-.505-5.26v-.001a5.58 5.58 0 0 0-4.656-2.492h-43.94l3.462-6.355c1.807-3.311 3.693-7.018 5.766-11.329a5.57 5.57 0 0 0-.292-5.404h-.001c-1.035-1.65-2.804-2.638-4.731-2.638-.645 0-1.287.114-1.906.333-11.323 4.016-22.094 5.886-33.899 5.886-4.672 0-9.6-.3-14.648-.895-10.92-1.284-20.993-4.83-30.249-8.482a5.555 5.555 0 0 0-5.134.546 145 145 0 0 1-16.861 9.708c-9.102 4.456-18.278 6.796-26.53 6.796-5.01 0-9.566-.855-13.543-2.526-5.548-2.327-9.358-6.094-10.823-10.506-2.156-6.49-1.048-13.126 3.003-18.206 2.58-3.236 8.795-8.753 21.674-8.753 1.529 0 3.133.08 4.766.236h.001c12.596 1.211 24.049 5.539 36.639 10.671a5.61 5.61 0 0 0 5.514-.734c5.585-4.278 10.652-8.642 16.018-13.265l.444-.38a808 808 0 0 1 5.749-4.919 5.54 5.54 0 0 0 1.906-5.157 5.53 5.53 0 0 0-3.43-4.285c-7.052-2.821-17.664-7.33-32.44-13.783a5.42 5.42 0 0 0-4.518.073h-.001a1353 1353 0 0 0-10.628 5.061c-11.797 5.7-25.268 8.715-38.961 8.715-19.365 0-36.375-6.173-44.463-15.913-5.193-6.249-5.556-13.315-1.096-19.375 6.835-9.293 16.881-14.041 29.895-14.041 13.395 0 29.825 5.252 47.485 15.268 6.674 3.786 9.837 5.212 16.138 8.057l1.421.641h.002a5.694 5.694 0 0 0 4.727-.026l5.82-2.714c50.501-23.538 102.745-47.828 140.862-98.368 2.467-3.27 4.981-6.927 7.473-10.868a5.606 5.606 0 0 0-4.73-8.598h-113.742a5.62 5.62 0 0 0-5.371 4.027 46189 46189 0 0 1-14.548 49.751 5.5 5.5 0 0 0 .881 4.88 5.52 5.52 0 0 0 4.458 2.227h20.795v8.594zm-.06 0v-1.759l-.017 1.736zm0-3.108v-.06h28.717v-2.258h-17.627a8.66 8.66 0 0 1-6.994-3.497 8.63 8.63 0 0 1-1.385-7.668c3.787-12.924 9.164-31.295 14.546-49.749 1.084-3.713 4.544-6.307 8.413-6.307h113.742a8.76 8.76 0 0 1 7.674 4.538 8.77 8.77 0 0 1-.266 8.92c-2.542 4.021-5.106 7.75-7.623 11.084-38.455 50.99-91.101 75.584-142.052 99.332l-5.818 2.712a8.9 8.9 0 0 1-3.735.826 8.8 8.8 0 0 1-3.637-.783l-1.421-.64c-6.403-2.891-9.616-4.343-16.397-8.189-17.09-9.692-32.962-14.856-45.923-14.856-11.888 0-21.1 4.262-27.343 12.751-3.564 4.842-3.169 10.48.98 15.473h.001c7.629 9.188 23.759 14.769 42.026 14.769 2.722 0 5.436-.123 8.127-.367h-.096c-11.986 0-24.201-2.413-33.646-6.253-6.469-2.63-11.65-5.95-14.676-9.592-2.149-2.588-2.863-4.884-2.932-6.776-.107-2.935 1.357-4.995 2.035-5.918 5.596-7.603 14.514-11.683 25.842-11.683 12.414 0 27.809 4.958 44.492 14.419 3.507 1.988 3.956 2.206 6.444 3.412l1.719.837.003.001a8.7 8.7 0 0 1 2.536 1.874c.257.239.701.561 1.135.896 2.624 2.023 4.477 3.762 4.152 6.905l-.03.252q1.565-.742 3.133-1.48a8.6 8.6 0 0 1 3.694-.832 8.6 8.6 0 0 1 3.442.72h.001c14.735 6.435 25.317 10.932 32.35 13.745a8.68 8.68 0 0 1 5.381 6.721 8.68 8.68 0 0 1-2.989 8.083 748 748 0 0 0-5.73 4.903l-.444.38c-5.411 4.66-10.522 9.061-16.156 13.377a8.8 8.8 0 0 1-5.322 1.799 8.7 8.7 0 0 1-3.312-.647h-.001c-7.033-2.867-13.698-5.488-20.418-7.428 2.918 1.108 5.992 2.443 9.297 4.032a8.7 8.7 0 0 1 4.938 7.142c.274 3.122-1.079 6.074-3.62 7.899a137 137 0 0 1-5.404 3.693q-3.997 2.593-7.887 4.415a72 72 0 0 0 7.708-3.245 142 142 0 0 0 16.498-9.498h.001a8.71 8.71 0 0 1 8.051-.858v.001c9.016 3.557 18.822 7.033 29.458 8.283 4.92.579 9.724.873 14.278.873 11.437 0 21.871-1.814 32.841-5.704a8.9 8.9 0 0 1 2.964-.515c3.017 0 5.792 1.538 7.414 4.122a8.71 8.71 0 0 1 .465 8.461c-2.1 4.366-4.01 8.119-5.839 11.473l-.91 1.67h38.606a8.74 8.74 0 0 1 7.294 3.905 8.74 8.74 0 0 1 .79 8.238l-5.587 13.36a8.74 8.74 0 0 1-8.083 5.382h-212.517l.419 2.259h159.165a8.695 8.695 0 0 1 8.176 5.615 8.72 8.72 0 0 1-2.321 9.668c-15.341 13.834-39.222 32.425-55.996 39.344-12.27 5.061-20.819 7.281-27.698 7.281-8.623 0-14.11-3.268-21.03-7.478-15.802-9.607-32.919-15.174-50.899-16.566l.615 2.099c27.121 3.021 41.374 11.694 49.111 16.398 7.433 4.52 13.339 7.771 21.938 7.771 7.465 0 16.618-2.379 28.826-7.415 20.407-8.42 53.29-34.698 71.223-53.944l.001-.001a8.77 8.77 0 0 1 6.387-2.772h16.326a8.75 8.75 0 0 1 7.296 3.907v.001a8.74 8.74 0 0 1 .789 8.235l-20.24 48.4a8.76 8.76 0 0 1-8.091 5.406 8.6 8.6 0 0 1-3.284-.649h-.001c-4.783-1.971-9.209-5.385-12.494-9.583l-2.438 1.927c4.83 9.159 10.33 11.276 12.371 11.718h12.678l26.396-63.945a8.74 8.74 0 0 1 8.1-5.417h2.254q.979-.001 1.969.218h.001C-34.177-15.152-20.164-4.022-5.357 7.81l2.283 1.822C10.484 20.44 24.487 31.643 41.468 37.486c9.412 3.24 19.751 4.876 30.727 4.876 8.639 0 17.826-1.017 27.305-3.018 19.352-4.091 40.786-12.275 55.682-18.3l.738-2.98c-25.28 10.026-44.403 16.432-56.888 19.07-9.333 1.971-18.362 2.97-26.833 2.97-10.751 0-20.843-1.603-29.996-4.754-16.45-5.662-29.788-16.255-43.89-27.501C-6.466 4.041-11.407.1-16.52-3.615h-.001a8.77 8.77 0 0 1-3.197-9.831 8.72 8.72 0 0 1 8.322-6.035h173.719l.805-2.259H-48.6a8.74 8.74 0 0 1-7.284-3.891 8.74 8.74 0 0 1-.816-8.213l7.398-17.922.664-1.542c3.15-7.305 6.294-14.405 9.407-21.433 8.146-18.39 15.839-35.759 22.963-55.179.542-1.476.327-3.148-.563-4.475-.936-1.393-2.468-2.231-4.126-2.232-5.942.022-12.244.459-18.487.89-5.087.35-10.346.712-15.607.838h-.019a8.78 8.78 0 0 1-6.462-2.855l-.58-.634-2.137 3.919c-6.297 11.554-12.672 26.197-18.299 39.116l-.441 1.011-7.467 7.425-3.271 1.407c-12.711 5.484-25.862 11.134-45.614 11.136-4.488 0-9.268-.294-14.206-.875-5.264-.619-10.779-1.854-16.862-3.785h-.001a8.76 8.76 0 0 1-5.929-6.647 8.76 8.76 0 0 1 2.956-8.413c2.369-1.989 4.684-3.983 6.982-5.961l.41-.355.002-.002c4.991-4.296 9.707-8.354 14.842-12.326a8.72 8.72 0 0 1 8.546-1.208h.001c2.088.825 4.214 1.648 6.372 2.411a8.8 8.8 0 0 1-1.932-4.382 8.79 8.79 0 0 1 3.333-8.166h.001a135 135 0 0 1 11.735-8.097c-7.633 3.304-14.851 7.315-21.928 12.175l-2.465 1.693-3.348-1.234c-4.505-1.662-13.158-5.26-22.318-9.071l-5.683-2.363c-3.248-1.347-5.315-4.364-5.396-7.879a8.76 8.76 0 0 1 5.039-8.125c45.921-21.531 90.037-44.23 124.777-85.314 1.504-1.779 3.688-2.891 5.974-3.054 5.069-.372 12.855-.817 21.17-.817 6.384 0 12.153.263 17.149.778 16.663 1.72 36.58 9.448 55.834 16.945 15.625 6.082 30.381 11.837 43.756 14.621 3.913.817 7.805 1.232 11.569 1.232 14.964 0 28.485-7.424 39.325-21.414l-3.234-1.562c-10.251 13.739-22.64 20.638-36.785 20.638-3.087 0-6.289-.34-9.52-1.012-12.773-2.663-27.353-8.33-42.785-14.341-19.553-7.61-39.764-15.503-57.467-17.328-6.135-.634-12.675-.955-19.433-.955-1.152 0-2.27.011-3.475.027h-.011a8.74 8.74 0 0 1-7.679-4.553 8.73 8.73 0 0 1 .324-8.907 222 222 0 0 0 6.978-11.664 8.77 8.77 0 0 1 7.639-4.49h197.481l-.378-2.259h-68.597a8.71 8.71 0 0 1-7.419-4.102 8.71 8.71 0 0 1-.472-8.468l5.674-11.76q.236-.489.533-.951l22.444-34.711-14.478-11.622-33.517 13.215a43.9 43.9 0 0 1-16.183 3.076l-52.891-.011a8.79 8.79 0 0 1-7.126-3.672 8.77 8.77 0 0 1-1.162-7.92c5.302-15.517 8.958-28.046 10.748-34.448H7.601c-1.84 6.456-6.349 21.686-12.951 40.202a8.79 8.79 0 0 1-8.262 5.832l-72.722-.014a23.7 23.7 0 0 1-17.789-8.042l-2.272-2.58-1.694 1.49 2.271 2.58a25.95 25.95 0 0 0 19.483 8.811l65.292.014a8.76 8.76 0 0 1 7.258 3.844 8.74 8.74 0 0 1 .898 8.135c-5.314 13.4-10.765 25.617-16.2 36.312a8.73 8.73 0 0 1-7.823 4.79h-119.111a8.7 8.7 0 0 1-7.01-3.503 8.7 8.7 0 0 1-1.408-7.714c7.599-26.123 12.169-42.026 13.583-47.273v-.001c1.774-6.573 5.123-23.06-3.292-34.045-2.492-3.253-7.101-7.148-15.108-8.41v2.277c5.791.966 10.25 3.507 13.314 7.505 5.285 6.898 6.466 18.886 2.906 32.087-1.458 5.41-6.542 23.155-15.113 52.747-1.081 3.728-4.543 6.33-8.418 6.33h-15.138l-.509 2.259h9.91a8.68 8.68 0 0 1 7.006 3.501 8.7 8.7 0 0 1 1.409 7.705v.001a57766 57766 0 0 1-14.461 49.718c-1.08 3.708-4.533 6.296-8.397 6.296h-19.25v2.258h25.503zm92.612 79.541a25 25 0 0 1-1.008 1.563q.587-.795 1.008-1.563m-154.316 50.221c-2.063-1.877-3.49-4.089-4.039-6.285-1.371-5.473-.699-10.798 1.831-15.005a17 17 0 0 1 2.728-3.446c-1.44 1.058-2.478 2.137-3.194 3.035-3.388 4.249-4.276 9.805-2.474 15.233.832 2.504 2.623 4.709 5.148 6.468m61.765-126.655c.245-.012 1.155-.123 1.456-1.126zM0-323.49l60.004.012a46.2 46.2 0 0 0 17.011-3.23l27.569-10.872.001-.001a8.8 8.8 0 0 1 3.209-.609c1.988 0 3.938.687 5.487 1.931l1.729 1.387a8.74 8.74 0 0 1 1.875 11.593l-17.151 26.51-10.384 21.411a8.81 8.81 0 0 1-7.886 4.945h-96.425a8.7 8.7 0 0 1-7.39-4.06 8.73 8.73 0 0 1-.523-8.442c4.962-10.523 9.904-22.273 14.69-34.924 1.294-3.432 4.507-5.651 8.184-5.651m0 3.168a5.53 5.53 0 0 0-5.22 3.602c-4.818 12.736-9.794 24.564-14.788 35.155a5.58 5.58 0 0 0 .333 5.396 5.55 5.55 0 0 0 4.714 2.588h96.425a5.62 5.62 0 0 0 5.034-3.158l10.47-21.588 17.257-26.672a5.58 5.58 0 0 0-1.197-7.401l-1.73-1.388a5.6 5.6 0 0 0-3.504-1.234c-.705 0-1.395.133-2.051.39L78.177-323.76a49.3 49.3 0 0 1-18.173 3.45zm-29.949 186.25h.144a8.78 8.78 0 0 1 7.244 3.823 8.75 8.75 0 0 1 .947 8.109c-2.521 6.525-5.338 13.439-8.611 21.139a8.75 8.75 0 0 1-8.071 5.335h-15.639c-4.019 0-7.846.294-11.691.9q-.704.111-1.381.11a8.7 8.7 0 0 1-7.307-3.984l-.001-.001a8.76 8.76 0 0 1-.656-8.354c3.857-8.669 6.973-15.3 9.803-20.87 1.475-2.901 4.432-4.716 7.723-4.729h.001c5.489-.016 11.306-.418 16.931-.804l1.22-.084c2.988-.208 6.015-.413 9.021-.577zm-.175 3.177c-2.974.163-5.981.367-8.951.573l-1.22.084c-5.694.392-11.583.796-17.138.812-2.091.009-3.974 1.154-4.911 2.997-2.81 5.53-5.902 12.114-9.732 20.721a5.6 5.6 0 0 0 .418 5.342 5.54 5.54 0 0 0 5.535 2.471h.001a77.6 77.6 0 0 1 12.187-.939h15.639a5.59 5.59 0 0 0 5.155-3.406c3.259-7.665 6.062-14.547 8.573-21.042a5.59 5.59 0 0 0-.607-5.177 5.61 5.61 0 0 0-4.63-2.445h-.082zm-23.567 37.488h6.789a8.74 8.74 0 0 1 7.343 3.98 8.73 8.73 0 0 1 .674 8.32l-2.796 6.321c-2.14 4.83-4.292 9.695-6.451 14.641h-.001a8.76 8.76 0 0 1-8.029 5.261h-28.485a8.72 8.72 0 0 1-7.405-4.075 8.7 8.7 0 0 1-.524-8.414c2.184-4.626 4.491-9.722 7.482-16.519a8.8 8.8 0 0 1 5.059-4.726c9.229-3.315 17.355-4.789 26.344-4.789m0 3.168c-8.625 0-16.419 1.422-25.275 4.603l-.001.001a5.6 5.6 0 0 0-3.227 3.019c-3.005 6.829-5.324 11.947-7.518 16.595a5.55 5.55 0 0 0 .336 5.366 5.57 5.57 0 0 0 4.729 2.603h28.485a5.6 5.6 0 0 0 5.127-3.361c2.161-4.951 4.316-9.821 6.458-14.656l2.794-6.318a5.57 5.57 0 0 0-.43-5.31v-.001a5.58 5.58 0 0 0-4.689-2.541zm-55.067-44.362c-2.424 0-4.756.606-6.934 1.796a130 130 0 0 0-17.201 11.232 5.615 5.615 0 0 0 1.362 9.664c5.019 1.995 9.483 2.979 13.651 2.979 5.322 0 10.191-1.654 14.472-4.915q.301-.23.559-.473l.003-.003c1.2-1.121 4.008-3.915 5.669-7.082.958-1.827 1.579-3.779.961-5.549-1.516-4.344-7.058-7.649-12.542-7.649m-124.149 38.569c-7.18 0-12.801 2.614-15.75 7.521h-.001c-2.123 3.532-2.623 8.01-1.472 12.605.64 2.56 2.91 5.06 5.978 6.767l.001.001c1.737.969 5.49 2.576 11.046 2.576 7.42 0 15.399-2.783 23.743-8.199a134 134 0 0 0 5.28-3.607 5.56 5.56 0 0 0 2.312-5.051 5.55 5.55 0 0 0-3.154-4.562c-9.247-4.446-16.605-6.854-23.864-7.781a33 33 0 0 0-4.119-.27m-34.022-63.606c-10.188 0-18.258 3.556-23.29 10.392-.452.616-1.493 1.967-1.421 3.925.05 1.37.648 2.995 2.203 4.868 2.761 3.322 7.531 6.283 13.432 8.682 9.11 3.703 20.893 6.019 32.453 6.019 11.85 0 23.076-2.388 32.459-6.919l1.322-.639.174-1.507c.097-.985-.284-1.673-.879-2.303-.561-.593-1.279-1.138-2.058-1.739-.56-.432-1.125-.858-1.435-1.156l-.04-.038-.037-.042a5.4 5.4 0 0 0-1.621-1.197l-1.71-.833c-2.556-1.238-3.018-1.463-6.622-3.506-16.109-9.135-30.944-14.007-42.93-14.007" style="fill:#7a1217" transform="matrix(5.55556 0 0 5.55556 1667.971 2119.52)"/><path d="M0 20.109C14.271 11.835 24.285 8.113 32.15 8.113c3.176 0 6.177.555 9.733 1.802 2.145.755 4.301 1.658 6.202 2.456 4.645 1.941 8.982 3.754 13.526 4.064q.697.049 1.398.049c8.892 0 17.758-5.857 37.72-21.155l3.155 4.416C83.015 15.779 73.628 21.908 63.038 21.908c-.594 0-1.19-.016-1.791-.059-5.459-.373-10.211-2.362-15.241-4.469-2.142-.894-4.008-1.672-5.921-2.346-1.654-.579-3.957-1.242-7.157-1.242-7.398 0-17.287 3.601-30.151 10.988z" style="fill:#7a1217;fill-rule:nonzero" transform="matrix(5.55556 0 0 5.55556 1208.276 1068.603)"/><path d="M-.794 18.739c14.611-8.472 24.891-12.21 32.944-12.21 3.347 0 6.51.577 10.258 1.892h.001c2.175.765 4.361 1.68 6.288 2.489 4.475 1.87 8.644 3.646 13.022 3.945h.001q.642.044 1.289.045c4.21 0 8.4-1.43 13.914-4.627 5.781-3.352 12.933-8.607 22.842-16.201l1.301-.997 4.996 6.994-1.213.932c-21.32 16.381-30.992 22.491-41.811 22.491-.631 0-1.263-.017-1.901-.063-5.636-.385-10.549-2.412-15.742-4.588-2.111-.881-3.95-1.648-5.835-2.312-1.533-.537-3.667-1.153-6.632-1.153-7.211 0-16.824 3.578-29.362 10.778l-1.353.777-4.393-7.389zm2.977 1.942 1.162 1.954c12.533-7.049 22.26-10.427 29.583-10.427 3.434 0 5.905.71 7.682 1.331l.001.001c1.94.684 3.833 1.472 6.006 2.379h.001c4.866 2.038 9.456 3.989 14.74 4.35h.002c.563.04 1.121.055 1.678.055 10.154 0 19.098-5.904 38.667-20.904l-1.313-1.838c-9.384 7.169-16.271 12.179-21.88 15.432-6.132 3.555-10.821 5.054-15.503 5.054q-.755 0-1.506-.053c-4.71-.321-9.214-2.171-14.03-4.183h-.001c-1.874-.787-3.999-1.678-6.114-2.423-3.365-1.179-6.203-1.712-9.208-1.712-7.42 0-16.773 3.461-29.967 10.984" style="fill:#7a1217" transform="matrix(5.55556 0 0 5.55556 1208.276 1068.603)"/><path d="M0-30.077c-9.584 0-17.105 2.991-21.749 8.649-3.429 4.182-3.476 8.18-.144 12.223 5.63 6.829 18.872 11.414 32.949 11.414 9.43 0 18.258-2.076 25.529-6.004 2.872-1.556 5.812-3.398 8.74-5.48l5.577-3.965-6.065-3.167c-1.147-.6-2.338-1.201-3.581-1.818C25.562-25.979 11.297-30.077 0-30.077m126.026 7.638c-4.038 0-8.024 1.138-11.527 3.289C105.686-13.739 98.26-7.363 91.13.915l-3.812 4.426 5.415 2.195c7.205 2.921 13.309 4.339 18.658 4.339 7.784 0 14.239-2.863 20.315-9.015 7.219-7.306 10.183-14.274 7.93-18.64-2.082-4.043-7.425-6.659-13.61-6.659M-22.313 27.869c-10.77 0-19.264 3.214-23.916 9.052-3.908 4.905-4.893 11.114-2.776 17.486 1.106 3.331 5.853 6.956 12.388 9.464 6.532 2.501 14.576 3.879 22.654 3.879 12.733 0 25.274-3.31 36.268-9.574a188 188 0 0 0 10.576-6.489l6.144-4.07-6.636-3.202C16.861 36.921.181 29.763-16.578 28.152a61 61 0 0 0-5.735-.283m8.333 45.25c-8.82 0-17.549-1.486-24.577-4.182-8.259-3.165-13.944-7.836-15.599-12.819-2.675-8.055-1.333-16.284 3.683-22.581 3.306-4.147 11.334-11.107 27.957-11.107 2.069 0 4.241.109 6.454.321C3.311 24.612 21.356 32.89 41.251 42.708l2.428 1.198 2.09-1.72c12.103-9.949 20.044-19.738 27.724-29.205a809 809 0 0 1 3.546-4.354l3.208-3.904-4.43-2.432c-4.246-2.332-8.043-4.798-12.063-7.408a521 521 0 0 0-5.634-3.619l-2.514-1.583-2.327 1.847c-4.79 3.799-9.538 6.978-14.114 9.449C31.1 5.333 21.388 7.636 11.079 7.636c-15.621 0-30.555-5.38-37.158-13.388-4.953-6.008-4.904-12.978.136-19.119 5.758-7.018 14.457-10.575 25.854-10.575 12.258 0 27.383 4.272 43.745 12.354a180 180 0 0 1 8.744 4.614l2.647 1.49 2.24-2.053c7.818-7.157 14.935-15.132 20.264-21.28 4.33-4.992 8.891-12.153 13.72-19.733 12.264-19.249 26.165-41.068 45.193-42.892l3.074-.25.579 5.406-3.056.236c-16.474 1.582-30.192 23.115-41.215 40.419-4.955 7.775-9.615 15.087-14.196 20.37-4.656 5.372-10.893 12.393-17.858 19.064l-3.843 3.681 6.754 4.348c4.814 3.124 9.333 6.055 14.551 8.696L84.028.428l2.149-2.245c8.04-8.406 16.082-14.35 26.073-19.278 3.798-1.873 8.077-2.863 12.376-2.863 7.313 0 13.698 2.874 16.664 7.498 1.971 3.073 5.11 11.388-8.27 22.266-6.299 5.122-13.209 7.613-21.128 7.613-6.647 0-13.925-1.66-23.601-5.382l-2.785-1.07-1.925 2.28c-1.945 2.307-3.877 4.69-5.86 7.134-6.818 8.407-13.858 17.087-23.924 26.059l-4.689 4.18 5.659 2.727c17.913 8.628 32.829 14.376 47.408 14.376 11.108 0 21.087-3.349 30.505-10.235l5.783-3.996-.854 6.964-1.81 1.472c-10.377 7.568-21.284 11.247-33.348 11.247-18.227 0-36.831-8.412-55.876-17.785l-2.278-1.12-2.049 1.498c-5.272 3.859-11.079 7.601-17.258 11.124-14.836 8.45-29.382 10.225-38.97 10.227" style="fill:#7a1217;fill-rule:nonzero" transform="matrix(5.55556 0 0 5.55556 1886.466 1397.248)"/><path d="M-13.98 74.703c-9.024 0-17.953-1.529-25.144-4.287-8.81-3.376-14.77-8.484-16.535-13.799-2.852-8.586-1.4-17.355 3.947-24.067 3.457-4.336 11.815-11.704 29.196-11.704 2.117 0 4.34.111 6.605.328C3.644 23.053 21.87 31.377 41.952 41.288l1.51.745 1.301-1.071c12.007-9.87 19.88-19.586 27.5-28.979a853 853 0 0 1 3.552-4.362l1.996-2.428-2.756-1.514c-4.281-2.351-8.11-4.836-12.163-7.467a513 513 0 0 0-5.617-3.608l-1.563-.985-1.449 1.15c-4.868 3.861-9.695 7.09-14.345 9.602C31.636 6.844 21.665 9.22 11.079 9.22c-16.153 0-31.552-5.684-38.38-13.964-5.474-6.641-5.437-14.344.133-21.132 6.037-7.358 15.13-11.154 27.079-11.154 12.452 0 27.825 4.308 44.446 12.518a181 181 0 0 1 8.82 4.654l1.646.926 1.394-1.277c7.77-7.113 14.841-15.04 20.137-21.15 4.288-4.944 8.799-12.04 13.581-19.546 7.433-11.666 15.477-24.254 24.862-32.866 6.464-5.932 13.572-9.99 21.527-10.753l4.625-.376.917 8.564-4.67.36c-6.257.607-12.065 4.299-17.489 9.493-8.482 8.123-15.977 19.92-22.525 30.199-5.002 7.848-9.711 15.224-14.335 20.557-4.682 5.402-10.955 12.462-17.959 19.17l-2.393 2.292 5.068 3.263.002.001c4.766 3.093 9.238 5.997 14.404 8.612l1.727.873 1.336-1.396c8.177-8.549 16.357-14.592 26.517-19.604 4.013-1.979 8.535-3.026 13.077-3.026 7.919 0 14.785 3.219 17.997 8.227 1.12 1.746 2.58 4.979 1.851 9.323-.683 4.071-3.331 9.235-10.455 15.027-6.596 5.364-13.834 7.968-22.127 7.968-6.806 0-14.263-1.677-24.169-5.487L85.99 8.85l-1.198 1.418c-1.939 2.3-3.864 4.675-5.841 7.111-6.867 8.468-13.961 17.207-24.1 26.243l-2.918 2.601 3.521 1.697c17.659 8.505 32.349 14.219 46.721 14.219 10.768 0 20.44-3.254 29.587-9.942l8.703-6.013-1.361 11.098-2.338 1.901-.034.025c-10.666 7.779-21.881 11.551-34.281 11.551-18.449 0-37.298-8.46-56.575-17.948l-1.418-.697-1.275.933c-5.318 3.892-11.176 7.667-17.409 11.221-15.135 8.62-29.973 10.433-39.754 10.435M85.343 5.207 89.93-.119c6.271-7.281 12.77-13.113 20.212-18.115-8.548 4.562-15.684 10.051-22.821 17.512L84.36 2.372 80.539.437c-5.27-2.667-9.835-5.624-14.696-8.779l-8.44-5.433 5.293-5.07c6.926-6.633 13.127-13.616 17.757-18.958 4.538-5.233 9.149-12.481 14.057-20.183 6.68-10.486 14.353-22.499 23.006-30.785 5.994-5.74 12.478-9.696 19.408-10.361l1.444-.112-.241-2.248-1.526.124c-7.273.701-13.742 4.499-19.662 9.931-9.197 8.44-17.048 20.801-24.332 32.234-4.876 7.654-9.487 14.88-13.859 19.919-5.362 6.187-12.525 14.21-20.391 21.411l-3.086 2.829-3.648-2.054a178 178 0 0 0-8.668-4.574h-.001c-16.102-7.954-30.979-12.19-43.043-12.19-10.845 0-19.15 3.318-24.63 9.996-4.509 5.494-4.569 11.731-.138 17.106C-18.479.976-4.01 6.052 11.079 6.052c10.032 0 19.485-2.23 27.333-6.469 4.502-2.43 9.171-5.559 13.883-9.296l3.205-2.544 3.465 2.181a530 530 0 0 1 5.651 3.63C68.603-3.857 72.368-1.41 76.579.903l6.104 3.35-4.42 5.38a856 856 0 0 0-3.54 4.345v.001c-7.741 9.542-15.75 19.403-27.947 29.43l-2.88 2.37-3.346-1.651c-19.708-9.725-37.572-17.957-56.763-19.8a67 67 0 0 0-6.303-.314c-15.865 0-23.563 6.552-26.718 10.51-4.685 5.882-5.917 13.571-3.419 21.095 1.545 4.651 6.954 8.885 14.663 11.839 6.866 2.634 15.394 4.077 24.01 4.077 9.395-.002 23.648-1.739 38.186-10.019 6.124-3.492 11.881-7.201 17.107-11.026l2.823-2.064 3.138 1.543c18.813 9.258 37.173 17.622 55.177 17.622 11.715 0 22.304-3.578 32.381-10.918l1.282-1.043.347-2.83-2.862 1.978c-9.701 7.089-19.983 10.529-31.424 10.529-14.786 0-29.928-5.782-48.096-14.533l-7.796-3.757 6.46-5.759c9.993-8.908 16.979-17.528 23.748-25.875 1.989-2.452 3.928-4.843 5.879-7.157l2.652-3.142zM141.42-9.001l-.002.006c-1.08 3.721-3.842 8.067-8.154 12.527 5.346-4.65 7.527-8.72 8.085-12.048q.041-.246.071-.485m-15.394-11.854c-3.748 0-7.447 1.058-10.698 3.055-8.674 5.325-15.981 11.602-22.998 19.749l-2.371 2.753 3.369 1.366c6.977 2.829 12.883 4.223 18.063 4.223 7.356 0 13.446-2.73 19.188-8.544 4.104-4.153 6.793-8.166 7.797-11.625.576-1.985.587-3.751-.148-5.176v-.001c-1.857-3.605-6.687-5.8-12.202-5.8M0-31.661c11.486 0 26.001 4.132 41.959 12.017h.001a190 190 0 0 1 3.61 1.833l8.357 4.364-7.684 5.463c-2.983 2.121-5.978 3.997-8.904 5.582l-.001.001c-7.486 4.044-16.573 6.194-26.282 6.194-14.62 0-28.324-4.898-34.171-11.991-1.943-2.357-2.853-4.72-2.825-7.085.027-2.345.983-4.731 2.966-7.15h.001c4.912-5.985 12.835-9.228 22.973-9.228m0 3.168c-9.03 0-16.149 2.739-20.524 8.07-1.446 1.763-2.228 3.467-2.248 5.177-.02 1.691.712 3.348 2.101 5.033C-15.258-3.647-2.479.625 11.056.625c9.15 0 17.72-2.002 24.775-5.813 2.818-1.527 5.703-3.335 8.576-5.378l3.47-2.467-3.774-1.97a184 184 0 0 0-3.55-1.802C25.123-24.429 11.107-28.493 0-28.493m-22.313 54.778c1.889 0 3.869.098 5.886.29h.001c16.939 1.629 33.808 8.839 49.503 16.413l9.144 4.412-8.465 5.608a190 190 0 0 1-10.666 6.544h-.001c-11.232 6.4-24.044 9.782-37.052 9.782-8.28 0-16.525-1.42-23.221-3.984h-.001c-4.128-1.584-7.57-3.606-9.922-5.716-1.73-1.553-2.887-3.18-3.401-4.728-2.298-6.915-1.201-13.649 3.04-18.972 4.901-6.151 13.808-9.649 25.155-9.649m0 3.168c-10.193 0-18.274 2.93-22.677 8.455-3.575 4.487-4.448 10.171-2.512 16 .371 1.117 1.263 2.248 2.511 3.368 2.116 1.898 5.227 3.691 8.941 5.116 6.368 2.438 14.212 3.774 22.087 3.774 12.458 0 24.727-3.238 35.484-9.366a186 186 0 0 0 10.485-6.434l3.823-2.532-4.128-1.992C16.34 38.429-.151 31.323-16.729 29.729a59 59 0 0 0-5.584-.276" style="fill:#7a1217" transform="matrix(5.55556 0 0 5.55556 1886.466 1397.248)"/><path d="m0 119.382.293-5.425h31.439c.906 0 1.774-.17 2.58-.503 8.1-3.329 17.705-13.503 23.345-24.737C62.921 78.236 79.549 10.609 82.14 0h5.999c-7.114 28.638-20.935 81.8-25.631 91.153-5.574 11.101-16.826 24.634-28.357 28.114l-.38.115z" style="fill:#7a1217;fill-rule:nonzero" transform="matrix(5.55556 0 0 5.55556 11.85 362.01)"/><path d="M-1.208 112.373h32.94c.693 0 1.358-.128 1.977-.384h.001c7.836-3.221 17.075-13.114 22.531-23.983 5.244-10.44 21.779-77.814 24.36-88.382l.295-1.208h9.269L89.676.382c-7.14 28.744-21.039 82.094-25.752 91.482-5.749 11.448-17.424 25.331-29.314 28.919l-.605.183H-1.672zm2.88 5.425h31.865l.156-.047c11.171-3.372 22-16.555 27.399-27.309 4.574-9.108 17.807-59.926 25.02-88.858h-2.729c-3.374 13.77-19.197 77.662-24.31 87.844-5.824 11.599-15.795 22.054-24.156 25.49a8.3 8.3 0 0 1-3.185.623H1.794z" style="fill:#7a1217" transform="matrix(5.55556 0 0 5.55556 11.85 362.01)"/><text x="750.726" y="582.389" style="font-family:&quot;Helvetica&quot;;font-size:360.209px;fill:#7a1217" transform="translate(-568.196 -324.016)">©</text></svg>